<svg xmlns="http://www.w3.org/2000/svg" viewBox="0 0 24 24">
  <path fill="#539E43" d="M11.998,24c-0.321,0-0.641-0.084-0.922-0.247l-2.936-1.737c-0.438-0.245-0.224-0.332-0.08-0.383 c0.585-0.203,0.703-0.25,1.328-0.604c0.065-0.037,0.151-0.023,0.218,0.017l2.256,1.339c0.082,0.045,0.197,0.045,0.272,0l8.795-5.076 c0.082-0.047,0.134-0.141,0.134-0.238V6.921c0-0.099-0.053-0.192-0.137-0.242l-8.791-5.072c-0.081-0.047-0.189-0.047-0.271,0 L3.075,6.68C2.99,6.729,2.936,6.825,2.936,6.921v10.15c0,0.097,0.054,0.189,0.139,0.235l2.409,1.392 c1.307,0.654,2.108-0.116,2.108-0.89V7.787c0-0.142,0.114-0.253,0.256-0.253h1.115c0.139,0,0.255,0.112,0.255,0.253v10.021 c0,1.745-0.95,2.745-2.604,2.745c-0.508,0-0.909,0-2.026-0.551L2.28,18.675c-0.57-0.329-0.922-0.945-0.922-1.604V6.921 c0-0.659,0.353-1.275,0.922-1.603l8.795-5.082c0.557-0.315,1.296-0.315,1.848,0l8.794,5.082c0.57,0.329,0.924,0.944,0.924,1.603 v10.15c0,0.659-0.354,1.273-0.924,1.604l-8.794,5.078C12.643,23.916,12.324,24,11.998,24z"/>
  <path fill="#539E43" d="M14.14,13.872c-3.845,0-4.64-1.766-4.64-3.246c0-0.141,0.114-0.253,0.255-0.253h1.138 c0.127,0,0.233,0.092,0.253,0.215c0.172,1.158,0.685,1.742,2.991,1.742c1.841,0,2.625-0.416,2.625-1.392 c0-0.562-0.222-0.979-3.083-1.259c-2.392-0.236-3.871-0.764-3.871-2.678c0-1.764,1.488-2.815,3.981-2.815 c2.8,0,4.186,0.973,4.362,3.06c0.007,0.072-0.019,0.141-0.065,0.193c-0.047,0.05-0.111,0.078-0.18,0.078h-1.143 c-0.119,0-0.224-0.085-0.247-0.199c-0.275-1.214-0.944-1.602-2.727-1.602c-2.008,0-2.24,0.699-2.24,1.222 c0,0.635,0.275,0.819,2.987,1.177c2.685,0.357,3.964,0.862,3.964,2.746c0,1.906-1.589,3.002-4.358,3.002z"/>
</svg> 